# xmcd
#
# Track frame offsets: 
#        150
#        10482
#        27082
#        46400
#        65175
#        81275
#        102092
#        122145
#        139875
#        158377
#
# Disc length: 2319 seconds
#
# Revision: 2
# Processed by: cddbd v1.5.2PL0 Copyright (c) Steve Scherf et al.
# Submitted via: ExactAudioCopyFreeDBPlugin 1.0
#
DISCID=80090d0a
DTITLE=中森明菜 - ファンタジー〈幻想曲〉
DYEAR=1991
DGENRE=Pop
TTITLE0=明菜から…。
TTITLE1=瑠璃色の夜へ
TTITLE2=アバンチュール
TTITLE3=にぎわいの季節へ
TTITLE4=傷だらけのラブ
TTITLE5=目をとじて小旅行
TTITLE6=セカンド·ラブ
TTITLE7=思春期
TTITLE8=Moreもっと恋して
TTITLE9=アイツはジョーク
EXTD=
EXTT0=
EXTT1=
EXTT2=
EXTT3=
EXTT4=
EXTT5=
EXTT6=
EXTT7=
EXTT8=
EXTT9=
PLAYORDER=
